<svg xmlns="http://www.w3.org/2000/svg" width="29" height="23"><path fill="#efd8c9" d="M2.455 22.558A14.309 14.309 0 01.006 14.5C.006 6.504 6.508 0 14.5 0s14.493 6.505 14.493 14.5a14.31 14.31 0 01-2.449 8.06.998.998 0 01-.827.439.998.998 0 01-.833-1.56c3.475-5.198 2.552-12.224-2.145-16.347a12.487 12.487 0 00-16.478 0C1.563 9.214.64 16.241 4.114 21.436a.998.998 0 01-.27 1.393 1 1 0 01-1.389-.27zm9.046-2.551a1.011 1.011 0 01-1.008-1.009c0-.269.104-.52.296-.71l1.374-1.376-.075-.278a2.637 2.637 0 01-.087-.642 2.5 2.5 0 012.498-2.494c.208.003.425.033.637.09l.278.073 4.371-4.374a1.001 1.001 0 011.422 0 1.01 1.01 0 010 1.424l-4.372 4.373.075.279c.056.208.085.424.088.642a2.5 2.5 0 01-2.499 2.493 2.588 2.588 0 01-.636-.089l-.278-.074-1.373 1.375c-.188.19-.447.297-.711.297z"/></svg>