<svg xmlns="http://www.w3.org/2000/svg" width="54" height="54"><defs><clipPath id="a"><path fill="#fff" d="M27 0c14.912 0 27 12.088 27 27 0 14.911-12.088 27-27 27S0 41.911 0 27C0 12.088 12.088 0 27 0z"/></clipPath></defs><g fill="none"><path d="M27 0c14.912 0 27 12.088 27 27 0 14.911-12.088 27-27 27S0 41.911 0 27C0 12.088 12.088 0 27 0z"/><path stroke="#444" stroke-miterlimit="20" stroke-width="2" d="M27 0v0c14.912 0 27 12.088 27 27v0c0 14.911-12.088 27-27 27v0C12.088 54 0 41.911 0 27v0C0 12.088 12.088 0 27 0z" clip-path="url(&quot;#a&quot;)"/></g><path fill="#444" d="M32 22a1 1 0 010-2h1v-1a1 1 0 012 0v1h1a1 1 0 010 2h-1v1a1 1 0 11-2 0v-1zm4 4a1 1 0 011 1v5.999a3 3 0 01-3 3H20a3 3 0 01-3-3v-10a3 3 0 013-3h8a1 1 0 010 2h-7.59l5.89 5.88a1 1 0 001.4 0l2.47-2.47a1.006 1.006 0 011.42 1.42l-2.47 2.47a3 3 0 01-4.24 0L19 23.41V33a1 1 0 001 1h14a1 1 0 001-1v-6a1 1 0 011-1z"/></svg>