<svg xmlns="http://www.w3.org/2000/svg" width="54" height="54"><defs><clipPath id="a"><path fill="#fff" d="M27 0c14.912 0 27 12.088 27 27 0 14.911-12.088 27-27 27S0 41.91 0 27C0 12.088 12.088 0 27 0z"/></clipPath></defs><g fill="none"><path d="M27 0c14.912 0 27 12.088 27 27 0 14.911-12.088 27-27 27S0 41.91 0 27C0 12.088 12.088 0 27 0z"/><path stroke="#444" stroke-miterlimit="20" stroke-width="2" d="M27 0v0c14.912 0 27 12.088 27 27v0c0 14.911-12.088 27-27 27v0C12.088 54 0 41.91 0 27v0C0 12.088 12.088 0 27 0z" clip-path="url(&quot;#a&quot;)"/></g><path fill="#fff" d="M35.16 20a6.27 6.27 0 01-.08 8.89l-6 6.05a3 3 0 01-4.24 0l-6-6.05A6.27 6.27 0 0127 19.41a6.29 6.29 0 018.16.59zm-1.124 7.477a4.457 4.457 0 00-.33-5.889 4.363 4.363 0 00-5.839-.334 1.024 1.024 0 01-1.46 0 4.363 4.363 0 00-6.168 0 4.477 4.477 0 000 6.222l6.168 6.223a1.024 1.024 0 001.46 0z"/></svg>